<svg width="119" height="48" viewBox="0 0 119 48" fill="none" xmlns="http://www.w3.org/2000/svg">
<rect width="119" height="48" fill="black"/>
<path d="M7.812 11.6H11.332V20.72H15.108V11.6H18.628V34H15.108V23.92H11.332V34H7.812V11.6ZM26.3695 34.32C24.6628 34.32 23.3615 33.84 22.4655 32.88C21.5695 31.8987 21.1215 30.5013 21.1215 28.688V11.6H24.6415V28.944C24.6415 29.712 24.7908 30.2667 25.0895 30.608C25.4095 30.9493 25.8575 31.12 26.4335 31.12C27.0095 31.12 27.4468 30.9493 27.7455 30.608C28.0655 30.2667 28.2255 29.712 28.2255 28.944V11.6H31.6175V28.688C31.6175 30.5013 31.1695 31.8987 30.2735 32.88C29.3775 33.84 28.0762 34.32 26.3695 34.32ZM34.1245 11.6H39.4365C41.2498 11.6 42.5725 12.0267 43.4045 12.88C44.2365 13.712 44.6525 15.0027 44.6525 16.752V17.648C44.6525 18.8 44.4605 19.7387 44.0765 20.464C43.7138 21.1893 43.1485 21.712 42.3805 22.032V22.096C44.1298 22.6933 45.0045 24.2507 45.0045 26.768V28.688C45.0045 30.416 44.5458 31.7387 43.6285 32.656C42.7325 33.552 41.4098 34 39.6605 34H34.1245V11.6ZM39.0205 20.72C39.7245 20.72 40.2472 20.5387 40.5885 20.176C40.9512 19.8133 41.1325 19.2053 41.1325 18.352V17.104C41.1325 16.2933 40.9832 15.7067 40.6845 15.344C40.4072 14.9813 39.9592 14.8 39.3405 14.8H37.6445V20.72H39.0205ZM39.6605 30.8C40.2792 30.8 40.7378 30.64 41.0365 30.32C41.3352 29.9787 41.4845 29.4027 41.4845 28.592V26.64C41.4845 25.616 41.3032 24.912 40.9405 24.528C40.5992 24.1227 40.0232 23.92 39.2125 23.92H37.6445V30.8H39.6605Z" fill="white"/>
<rect x="50.5" y="5" width="62" height="38" rx="5" fill="#F7971D"/>
<path d="M61.812 11.6H71.124V14.8H65.332V21.04H69.876V24.24H65.332V34H61.812V11.6ZM72.812 11.6H76.332V30.8H82.124V34H72.812V11.6ZM83.812 11.6H87.332V34H83.812V11.6ZM93.0723 22.544L89.2003 11.6H92.9123L95.2803 18.832H95.3443L97.7763 11.6H101.104L97.2323 22.544L101.296 34H97.5843L95.0243 26.192H94.9603L92.3363 34H89.0083L93.0723 22.544Z" fill="black"/>
</svg>
